<svg xmlns="http://www.w3.org/2000/svg" width="512" height="512" viewBox="0 0 512 512">
  <rect width="512" height="512" rx="96" fill="#0a0a1a"/>
  <circle cx="256" cy="266" r="182" fill="#6c1c8c" opacity="0.3"/>
  <!-- Wings -->
  <polygon points="128,293 53,187 165,253" fill="#7d3c98" opacity="0.9"/>
  <polygon points="384,293 459,187 347,253" fill="#7d3c98" opacity="0.9"/>
  <!-- Body -->
  <ellipse cx="256" cy="307" rx="90" ry="75" fill="#8e44ad"/>
  <!-- Neck -->
  <rect x="224" y="227" width="64" height="58" rx="22" fill="#8e44ad"/>
  <!-- Head -->
  <ellipse cx="256" cy="213" rx="75" ry="64" fill="#9b59b6"/>
  <!-- Snout -->
  <ellipse cx="256" cy="245" rx="42" ry="27" fill="#8e44ad"/>
  <!-- Horn left -->
  <polygon points="213,165 196,101 230,160" fill="#d4ac0d"/>
  <!-- Horn right -->
  <polygon points="299,165 316,101 282,160" fill="#d4ac0d"/>
  <!-- Eye left -->
  <circle cx="224" cy="197" r="19" fill="#fff"/>
  <circle cx="227" cy="200" r="11" fill="#1a0a2e"/>
  <circle cx="221" cy="194" r="4" fill="#fff"/>
  <!-- Eye right -->
  <circle cx="288" cy="197" r="19" fill="#fff"/>
  <circle cx="291" cy="200" r="11" fill="#1a0a2e"/>
  <circle cx="285" cy="194" r="4" fill="#fff"/>
  <!-- Nostrils -->
  <circle cx="240" cy="240" r="7" fill="#4a235a"/>
  <circle cx="272" cy="240" r="7" fill="#4a235a"/>
  <!-- Tail -->
  <path d="M320 341 Q387 373 400 421 Q368 394 332 378Z" fill="#7d3c98"/>
  <!-- Belly highlight -->
  <ellipse cx="256" cy="315" rx="54" ry="38" fill="#a569bd" opacity="0.5"/>
  <!-- Fire -->
  <circle cx="256" cy="395" r="38" fill="#e74c3c" opacity="0.6"/>
  <text x="256" y="407" font-size="48" text-anchor="middle" dominant-baseline="middle">🔥</text>
</svg>
