<svg xmlns="http://www.w3.org/2000/svg" width="512" height="512" viewBox="0 0 512 512">
  <rect width="512" height="512" rx="96" fill="#1a0a00"/>
  <!-- Fire background glow -->
  <circle cx="256" cy="266" r="192" fill="#e74c3c" opacity="0.15"/>
  <circle cx="256" cy="293" r="147" fill="#f39c12" opacity="0.12"/>
  <!-- Wings -->
  <polygon points="117,280 37,155 160,235" fill="#c0392b" opacity="0.9"/>
  <polygon points="395,280 475,155 352,235" fill="#c0392b" opacity="0.9"/>
  <!-- Wing membrane lines -->
  <line x1="117" y1="280" x2="80" y2="187" stroke="#e74c3c" stroke-width="2.5" opacity="0.5"/>
  <line x1="117" y1="280" x2="55" y2="210" stroke="#e74c3c" stroke-width="2" opacity="0.35"/>
  <line x1="395" y1="280" x2="432" y2="187" stroke="#e74c3c" stroke-width="2.5" opacity="0.5"/>
  <line x1="395" y1="280" x2="457" y2="210" stroke="#e74c3c" stroke-width="2" opacity="0.35"/>
  <!-- Tail -->
  <path d="M325 347 Q400 387 421 432 Q395 400 347 379Z" fill="#c0392b"/>
  <!-- Tail flame tip -->
  <circle cx="421" cy="427" r="16" fill="#f39c12" opacity="0.8"/>
  <circle cx="421" cy="427" r="8" fill="#f1c40f" opacity="0.9"/>
  <!-- Body -->
  <ellipse cx="256" cy="315" rx="96" ry="80" fill="#e74c3c"/>
  <!-- Neck -->
  <rect x="219" y="229" width="75" height="64" rx="26" fill="#e74c3c"/>
  <!-- Head -->
  <ellipse cx="256" cy="208" rx="80" ry="69" fill="#e67e22"/>
  <!-- Snout -->
  <ellipse cx="256" cy="243" rx="45" ry="29" fill="#d35400"/>
  <!-- Head crest / spikes -->
  <polygon points="208,155 192,96 229,147" fill="#f39c12"/>
  <polygon points="256,139 251,80 261,80" fill="#f1c40f"/>
  <polygon points="304,155 320,96 283,147" fill="#f39c12"/>
  <!-- Eye left -->
  <circle cx="219" cy="192" r="21" fill="#fff"/>
  <circle cx="222" cy="195" r="13" fill="#1a0500"/>
  <circle cx="216" cy="189" r="5" fill="#fff"/>
  <!-- Eye right -->
  <circle cx="293" cy="192" r="21" fill="#fff"/>
  <circle cx="296" cy="195" r="13" fill="#1a0500"/>
  <circle cx="290" cy="189" r="5" fill="#fff"/>
  <!-- Nostrils with smoke -->
  <circle cx="237" cy="237" r="7" fill="#7f1d1d"/>
  <circle cx="275" cy="237" r="7" fill="#7f1d1d"/>
  <circle cx="229" cy="224" r="5" fill="#999" opacity="0.3"/>
  <circle cx="283" cy="224" r="5" fill="#999" opacity="0.3"/>
  <!-- Belly scales -->
  <ellipse cx="256" cy="325" rx="59" ry="43" fill="#f39c12" opacity="0.5"/>
  <!-- Chest fire glow -->
  <ellipse cx="256" cy="347" rx="37" ry="21" fill="#f1c40f" opacity="0.3"/>
  <!-- Flame breath -->
  <ellipse cx="256" cy="400" rx="48" ry="32" fill="#e74c3c" opacity="0.7"/>
  <ellipse cx="256" cy="395" rx="32" ry="21" fill="#f39c12" opacity="0.8"/>
  <ellipse cx="256" cy="390" rx="16" ry="13" fill="#f1c40f" opacity="0.9"/>
  <!-- Claws -->
  <ellipse cx="192" cy="379" rx="16" ry="11" fill="#c0392b"/>
  <ellipse cx="320" cy="379" rx="16" ry="11" fill="#c0392b"/>
</svg>
