<svg xmlns="http://www.w3.org/2000/svg" width="192" height="192" viewBox="0 0 192 192">
  <rect width="192" height="192" rx="36" fill="#0a0a1a"/>
  <circle cx="96" cy="100" r="68" fill="#6c1c8c" opacity="0.3"/>
  <!-- Wings -->
  <polygon points="48,110 20,70 62,95" fill="#7d3c98" opacity="0.9"/>
  <polygon points="144,110 172,70 130,95" fill="#7d3c98" opacity="0.9"/>
  <!-- Body -->
  <ellipse cx="96" cy="115" rx="34" ry="28" fill="#8e44ad"/>
  <!-- Neck -->
  <rect x="84" y="85" width="24" height="22" rx="8" fill="#8e44ad"/>
  <!-- Head -->
  <ellipse cx="96" cy="80" rx="28" ry="24" fill="#9b59b6"/>
  <!-- Snout -->
  <ellipse cx="96" cy="92" rx="16" ry="10" fill="#8e44ad"/>
  <!-- Horn left -->
  <polygon points="80,62 73,38 87,60" fill="#d4ac0d"/>
  <!-- Horn right -->
  <polygon points="112,62 119,38 105,60" fill="#d4ac0d"/>
  <!-- Eye left -->
  <circle cx="84" cy="74" r="7" fill="#fff"/>
  <circle cx="85" cy="75" r="4" fill="#1a0a2e"/>
  <circle cx="83" cy="73" r="1.5" fill="#fff"/>
  <!-- Eye right -->
  <circle cx="108" cy="74" r="7" fill="#fff"/>
  <circle cx="109" cy="75" r="4" fill="#1a0a2e"/>
  <circle cx="107" cy="73" r="1.5" fill="#fff"/>
  <!-- Nostrils -->
  <circle cx="90" cy="90" r="2.5" fill="#4a235a"/>
  <circle cx="102" cy="90" r="2.5" fill="#4a235a"/>
  <!-- Tail -->
  <path d="M120 128 Q145 140 150 158 Q138 148 125 142Z" fill="#7d3c98"/>
  <!-- Belly highlight -->
  <ellipse cx="96" cy="118" rx="20" ry="14" fill="#a569bd" opacity="0.5"/>
  <!-- Fire glow -->
  <circle cx="96" cy="148" r="14" fill="#e74c3c" opacity="0.6"/>
  <text x="96" y="156" font-size="18" text-anchor="middle" dominant-baseline="middle">🔥</text>
</svg>
